# xmcd
#
# Track frame offsets:
#	150
#	23460
#	41368
#	60956
#	78641
#	97280
#	116217
#	136841
#	153699
#	174280
#	192691
#	211357
#	229803
#	248014
#
# Disc length: 3577 seconds
#
# Revision: 1
# Processed by: cddbd v1.5.2PL0 Copyright (c) Steve Scherf et al.
# Submitted via: audiograbber 1.83.01
#
DISCID=bb0df70e
DTITLE=Anaconda - magical music of the andes
DYEAR=1900
DGENRE=
TTITLE0=pururunas (master)
TTITLE1=san juan cumbia
TTITLE2=pasito tun tun
TTITLE3=bonito
TTITLE4=otavalena
TTITLE5=anaconda
TTITLE6=alegre amanecer
TTITLE7=due viva la fiesta
TTITLE8=Amores hallaras (master)
TTITLE9=shipibo
TTITLE10=piedrecita
TTITLE11=lucila
TTITLE12=huambrita
TTITLE13=si me quieres
EXTD=
EXTT0=
EXTT1=
EXTT2=
EXTT3=
EXTT4=
EXTT5=
EXTT6=
EXTT7=
EXTT8=
EXTT9=
EXTT10=
EXTT11=
EXTT12=
EXTT13=
PLAYORDER=
